<mxfile host="app.diagrams.net" agent="Mozilla/5.0 (Windows NT 10.0; Win64; x64) AppleWebKit/537.36 (KHTML, like Gecko) Chrome/128.0.0.0 Safari/537.36 Edg/128.0.0.0" version="24.7.14">
  <diagram name="Page-1" id="74e2e168-ea6b-b213-b513-2b3c1d86103e">
    <mxGraphModel dx="1572" dy="926" grid="1" gridSize="10" guides="1" tooltips="1" connect="1" arrows="1" fold="1" page="1" pageScale="1" pageWidth="1100" pageHeight="850" background="none" math="0" shadow="0">
      <root>
        <mxCell id="0" />
        <mxCell id="1" parent="0" />
        <mxCell id="aBzJZc6G_LC1oanPzKE7-10" value="" style="rounded=0;whiteSpace=wrap;html=1;" parent="1" vertex="1">
          <mxGeometry x="180" y="210" width="201" height="81" as="geometry" />
        </mxCell>
        <mxCell id="aBzJZc6G_LC1oanPzKE7-11" value="" style="endArrow=none;html=1;rounded=0;exitX=0.766;exitY=0.998;exitDx=0;exitDy=0;exitPerimeter=0;" parent="1" edge="1">
          <mxGeometry width="50" height="50" relative="1" as="geometry">
            <mxPoint x="339.97" y="290.838" as="sourcePoint" />
            <mxPoint x="339.85" y="210" as="targetPoint" />
          </mxGeometry>
        </mxCell>
        <mxCell id="aBzJZc6G_LC1oanPzKE7-13" value="" style="endArrow=none;html=1;rounded=0;" parent="1" edge="1">
          <mxGeometry width="50" height="50" relative="1" as="geometry">
            <mxPoint x="261" y="291" as="sourcePoint" />
            <mxPoint x="261" y="210" as="targetPoint" />
          </mxGeometry>
        </mxCell>
        <mxCell id="aBzJZc6G_LC1oanPzKE7-14" value="Tipo do Veículo" style="text;html=1;align=center;verticalAlign=middle;whiteSpace=wrap;rounded=0;" parent="1" vertex="1">
          <mxGeometry x="261" y="231" width="70" height="30" as="geometry" />
        </mxCell>
        <mxCell id="aBzJZc6G_LC1oanPzKE7-15" value="Placa do Veículo" style="text;html=1;align=center;verticalAlign=middle;whiteSpace=wrap;rounded=0;" parent="1" vertex="1">
          <mxGeometry x="191" y="231" width="70" height="30" as="geometry" />
        </mxCell>
        <mxCell id="aBzJZc6G_LC1oanPzKE7-40" value="&lt;font size=&quot;1&quot; color=&quot;#ff0000&quot;&gt;&lt;b style=&quot;font-size: 20px;&quot;&gt;NULL&lt;/b&gt;&lt;/font&gt;" style="text;html=1;align=center;verticalAlign=middle;whiteSpace=wrap;rounded=0;" parent="1" vertex="1">
          <mxGeometry x="915" y="201" width="70" height="60" as="geometry" />
        </mxCell>
        <mxCell id="aBzJZc6G_LC1oanPzKE7-43" value="&lt;font size=&quot;1&quot; style=&quot;&quot;&gt;&lt;b style=&quot;font-size: 20px;&quot;&gt;Cabeça&lt;/b&gt;&lt;/font&gt;" style="text;html=1;align=center;verticalAlign=middle;whiteSpace=wrap;rounded=0;" parent="1" vertex="1">
          <mxGeometry x="170" y="130" width="90" height="60" as="geometry" />
        </mxCell>
        <mxCell id="aBzJZc6G_LC1oanPzKE7-61" value="" style="endArrow=none;html=1;rounded=0;" parent="1" edge="1">
          <mxGeometry width="50" height="50" relative="1" as="geometry">
            <mxPoint x="340" y="250" as="sourcePoint" />
            <mxPoint x="381" y="250" as="targetPoint" />
          </mxGeometry>
        </mxCell>
        <mxCell id="aBzJZc6G_LC1oanPzKE7-122" value="" style="endArrow=classic;html=1;rounded=0;entryX=0.901;entryY=-0.001;entryDx=0;entryDy=0;entryPerimeter=0;" parent="1" target="aBzJZc6G_LC1oanPzKE7-220" edge="1">
          <mxGeometry width="50" height="50" relative="1" as="geometry">
            <mxPoint x="361" y="291" as="sourcePoint" />
            <mxPoint x="361" y="320" as="targetPoint" />
          </mxGeometry>
        </mxCell>
        <mxCell id="aBzJZc6G_LC1oanPzKE7-147" value="" style="endArrow=classic;html=1;rounded=0;exitX=1;exitY=0.25;exitDx=0;exitDy=0;" parent="1" source="aBzJZc6G_LC1oanPzKE7-10" edge="1">
          <mxGeometry width="50" height="50" relative="1" as="geometry">
            <mxPoint x="515" y="280" as="sourcePoint" />
            <mxPoint x="421" y="230" as="targetPoint" />
          </mxGeometry>
        </mxCell>
        <mxCell id="aBzJZc6G_LC1oanPzKE7-171" value="" style="endArrow=classic;html=1;rounded=0;" parent="1" edge="1">
          <mxGeometry width="50" height="50" relative="1" as="geometry">
            <mxPoint x="841" y="291" as="sourcePoint" />
            <mxPoint x="841" y="331" as="targetPoint" />
          </mxGeometry>
        </mxCell>
        <mxCell id="aBzJZc6G_LC1oanPzKE7-188" value="&lt;font size=&quot;1&quot; color=&quot;#ff0000&quot;&gt;&lt;b style=&quot;font-size: 20px;&quot;&gt;NULL&lt;/b&gt;&lt;/font&gt;" style="text;html=1;align=center;verticalAlign=middle;whiteSpace=wrap;rounded=0;" parent="1" vertex="1">
          <mxGeometry x="331" y="550" width="70" height="60" as="geometry" />
        </mxCell>
        <mxCell id="aBzJZc6G_LC1oanPzKE7-203" value="&lt;font size=&quot;1&quot; color=&quot;#ff0000&quot;&gt;&lt;b style=&quot;font-size: 20px;&quot;&gt;NULL&lt;/b&gt;&lt;/font&gt;" style="text;html=1;align=center;verticalAlign=middle;whiteSpace=wrap;rounded=0;" parent="1" vertex="1">
          <mxGeometry x="809" y="430" width="70" height="60" as="geometry" />
        </mxCell>
        <mxCell id="aBzJZc6G_LC1oanPzKE7-205" value="&lt;font size=&quot;1&quot; color=&quot;#ff0000&quot;&gt;&lt;b style=&quot;font-size: 20px;&quot;&gt;NULL&lt;/b&gt;&lt;/font&gt;" style="text;html=1;align=center;verticalAlign=middle;whiteSpace=wrap;rounded=0;" parent="1" vertex="1">
          <mxGeometry x="571" y="790" width="70" height="60" as="geometry" />
        </mxCell>
        <mxCell id="aBzJZc6G_LC1oanPzKE7-206" value="" style="rounded=0;whiteSpace=wrap;html=1;" parent="1" vertex="1">
          <mxGeometry x="421" y="210" width="201" height="81" as="geometry" />
        </mxCell>
        <mxCell id="aBzJZc6G_LC1oanPzKE7-207" value="" style="endArrow=none;html=1;rounded=0;exitX=0.766;exitY=0.998;exitDx=0;exitDy=0;exitPerimeter=0;" parent="1" edge="1">
          <mxGeometry width="50" height="50" relative="1" as="geometry">
            <mxPoint x="580.97" y="290.838" as="sourcePoint" />
            <mxPoint x="580.85" y="210" as="targetPoint" />
          </mxGeometry>
        </mxCell>
        <mxCell id="aBzJZc6G_LC1oanPzKE7-208" value="" style="endArrow=none;html=1;rounded=0;" parent="1" edge="1">
          <mxGeometry width="50" height="50" relative="1" as="geometry">
            <mxPoint x="502" y="291" as="sourcePoint" />
            <mxPoint x="502" y="210" as="targetPoint" />
          </mxGeometry>
        </mxCell>
        <mxCell id="aBzJZc6G_LC1oanPzKE7-209" value="Tipo do Veículo" style="text;html=1;align=center;verticalAlign=middle;whiteSpace=wrap;rounded=0;" parent="1" vertex="1">
          <mxGeometry x="502" y="231" width="70" height="30" as="geometry" />
        </mxCell>
        <mxCell id="aBzJZc6G_LC1oanPzKE7-210" value="Placa do Veículo" style="text;html=1;align=center;verticalAlign=middle;whiteSpace=wrap;rounded=0;" parent="1" vertex="1">
          <mxGeometry x="432" y="231" width="70" height="30" as="geometry" />
        </mxCell>
        <mxCell id="aBzJZc6G_LC1oanPzKE7-211" value="" style="endArrow=none;html=1;rounded=0;" parent="1" edge="1">
          <mxGeometry width="50" height="50" relative="1" as="geometry">
            <mxPoint x="581" y="250" as="sourcePoint" />
            <mxPoint x="622" y="250" as="targetPoint" />
          </mxGeometry>
        </mxCell>
        <mxCell id="aBzJZc6G_LC1oanPzKE7-212" value="" style="endArrow=classic;html=1;rounded=0;exitX=1;exitY=0.25;exitDx=0;exitDy=0;entryX=0;entryY=0.25;entryDx=0;entryDy=0;" parent="1" source="aBzJZc6G_LC1oanPzKE7-206" target="aBzJZc6G_LC1oanPzKE7-213" edge="1">
          <mxGeometry width="50" height="50" relative="1" as="geometry">
            <mxPoint x="756" y="280" as="sourcePoint" />
            <mxPoint x="662" y="230" as="targetPoint" />
          </mxGeometry>
        </mxCell>
        <mxCell id="aBzJZc6G_LC1oanPzKE7-213" value="" style="rounded=0;whiteSpace=wrap;html=1;" parent="1" vertex="1">
          <mxGeometry x="659" y="210" width="201" height="81" as="geometry" />
        </mxCell>
        <mxCell id="aBzJZc6G_LC1oanPzKE7-214" value="" style="endArrow=none;html=1;rounded=0;exitX=0.766;exitY=0.998;exitDx=0;exitDy=0;exitPerimeter=0;" parent="1" edge="1">
          <mxGeometry width="50" height="50" relative="1" as="geometry">
            <mxPoint x="818.97" y="290.838" as="sourcePoint" />
            <mxPoint x="818.85" y="210" as="targetPoint" />
          </mxGeometry>
        </mxCell>
        <mxCell id="aBzJZc6G_LC1oanPzKE7-215" value="" style="endArrow=none;html=1;rounded=0;" parent="1" edge="1">
          <mxGeometry width="50" height="50" relative="1" as="geometry">
            <mxPoint x="740" y="291" as="sourcePoint" />
            <mxPoint x="740" y="210" as="targetPoint" />
          </mxGeometry>
        </mxCell>
        <mxCell id="aBzJZc6G_LC1oanPzKE7-216" value="Tipo do Veículo" style="text;html=1;align=center;verticalAlign=middle;whiteSpace=wrap;rounded=0;" parent="1" vertex="1">
          <mxGeometry x="740" y="224.5" width="70" height="45.5" as="geometry" />
        </mxCell>
        <mxCell id="aBzJZc6G_LC1oanPzKE7-217" value="Placa do Veículo" style="text;html=1;align=center;verticalAlign=middle;whiteSpace=wrap;rounded=0;" parent="1" vertex="1">
          <mxGeometry x="670" y="231" width="70" height="30" as="geometry" />
        </mxCell>
        <mxCell id="aBzJZc6G_LC1oanPzKE7-218" value="" style="endArrow=none;html=1;rounded=0;" parent="1" edge="1">
          <mxGeometry width="50" height="50" relative="1" as="geometry">
            <mxPoint x="819" y="250" as="sourcePoint" />
            <mxPoint x="860" y="250" as="targetPoint" />
          </mxGeometry>
        </mxCell>
        <mxCell id="aBzJZc6G_LC1oanPzKE7-219" value="" style="endArrow=classic;html=1;rounded=0;exitX=1;exitY=0.25;exitDx=0;exitDy=0;" parent="1" source="aBzJZc6G_LC1oanPzKE7-213" edge="1">
          <mxGeometry width="50" height="50" relative="1" as="geometry">
            <mxPoint x="994" y="280" as="sourcePoint" />
            <mxPoint x="900" y="230" as="targetPoint" />
          </mxGeometry>
        </mxCell>
        <mxCell id="aBzJZc6G_LC1oanPzKE7-220" value="" style="rounded=0;whiteSpace=wrap;html=1;" parent="1" vertex="1">
          <mxGeometry x="180" y="329" width="201" height="81" as="geometry" />
        </mxCell>
        <mxCell id="aBzJZc6G_LC1oanPzKE7-221" value="" style="endArrow=none;html=1;rounded=0;exitX=0.766;exitY=0.998;exitDx=0;exitDy=0;exitPerimeter=0;" parent="1" edge="1">
          <mxGeometry width="50" height="50" relative="1" as="geometry">
            <mxPoint x="339.97" y="409.838" as="sourcePoint" />
            <mxPoint x="339.85" y="329" as="targetPoint" />
          </mxGeometry>
        </mxCell>
        <mxCell id="aBzJZc6G_LC1oanPzKE7-222" value="" style="endArrow=none;html=1;rounded=0;" parent="1" edge="1">
          <mxGeometry width="50" height="50" relative="1" as="geometry">
            <mxPoint x="261" y="410" as="sourcePoint" />
            <mxPoint x="261" y="329" as="targetPoint" />
          </mxGeometry>
        </mxCell>
        <mxCell id="aBzJZc6G_LC1oanPzKE7-223" value="CPF da Pessoa" style="text;html=1;align=center;verticalAlign=middle;whiteSpace=wrap;rounded=0;" parent="1" vertex="1">
          <mxGeometry x="261" y="350" width="70" height="30" as="geometry" />
        </mxCell>
        <mxCell id="aBzJZc6G_LC1oanPzKE7-224" value="Nome da Pessoa" style="text;html=1;align=center;verticalAlign=middle;whiteSpace=wrap;rounded=0;" parent="1" vertex="1">
          <mxGeometry x="180" y="348" width="70" height="32" as="geometry" />
        </mxCell>
        <mxCell id="aBzJZc6G_LC1oanPzKE7-225" value="" style="endArrow=none;html=1;rounded=0;" parent="1" edge="1">
          <mxGeometry width="50" height="50" relative="1" as="geometry">
            <mxPoint x="340" y="369" as="sourcePoint" />
            <mxPoint x="381" y="369" as="targetPoint" />
          </mxGeometry>
        </mxCell>
        <mxCell id="aBzJZc6G_LC1oanPzKE7-227" value="" style="rounded=0;whiteSpace=wrap;html=1;" parent="1" vertex="1">
          <mxGeometry x="180" y="449" width="201" height="81" as="geometry" />
        </mxCell>
        <mxCell id="aBzJZc6G_LC1oanPzKE7-228" value="" style="endArrow=none;html=1;rounded=0;exitX=0.766;exitY=0.998;exitDx=0;exitDy=0;exitPerimeter=0;" parent="1" edge="1">
          <mxGeometry width="50" height="50" relative="1" as="geometry">
            <mxPoint x="339.97" y="529.838" as="sourcePoint" />
            <mxPoint x="339.85" y="449" as="targetPoint" />
          </mxGeometry>
        </mxCell>
        <mxCell id="aBzJZc6G_LC1oanPzKE7-229" value="" style="endArrow=none;html=1;rounded=0;" parent="1" edge="1">
          <mxGeometry width="50" height="50" relative="1" as="geometry">
            <mxPoint x="261" y="530" as="sourcePoint" />
            <mxPoint x="261" y="449" as="targetPoint" />
          </mxGeometry>
        </mxCell>
        <mxCell id="aBzJZc6G_LC1oanPzKE7-230" value="CPF da Pessoa" style="text;html=1;align=center;verticalAlign=middle;whiteSpace=wrap;rounded=0;" parent="1" vertex="1">
          <mxGeometry x="261" y="470" width="70" height="30" as="geometry" />
        </mxCell>
        <mxCell id="aBzJZc6G_LC1oanPzKE7-231" value="Nome da Pessoa" style="text;html=1;align=center;verticalAlign=middle;whiteSpace=wrap;rounded=0;" parent="1" vertex="1">
          <mxGeometry x="180" y="468" width="70" height="32" as="geometry" />
        </mxCell>
        <mxCell id="aBzJZc6G_LC1oanPzKE7-232" value="" style="endArrow=none;html=1;rounded=0;" parent="1" edge="1">
          <mxGeometry width="50" height="50" relative="1" as="geometry">
            <mxPoint x="340" y="489" as="sourcePoint" />
            <mxPoint x="381" y="489" as="targetPoint" />
          </mxGeometry>
        </mxCell>
        <mxCell id="aBzJZc6G_LC1oanPzKE7-234" value="" style="endArrow=classic;html=1;rounded=0;entryX=0.901;entryY=-0.001;entryDx=0;entryDy=0;entryPerimeter=0;" parent="1" edge="1">
          <mxGeometry width="50" height="50" relative="1" as="geometry">
            <mxPoint x="361" y="410" as="sourcePoint" />
            <mxPoint x="361" y="448" as="targetPoint" />
          </mxGeometry>
        </mxCell>
        <mxCell id="aBzJZc6G_LC1oanPzKE7-235" value="" style="endArrow=classic;html=1;rounded=0;entryX=0.901;entryY=-0.001;entryDx=0;entryDy=0;entryPerimeter=0;" parent="1" edge="1">
          <mxGeometry width="50" height="50" relative="1" as="geometry">
            <mxPoint x="361" y="530" as="sourcePoint" />
            <mxPoint x="361" y="568" as="targetPoint" />
          </mxGeometry>
        </mxCell>
        <mxCell id="aBzJZc6G_LC1oanPzKE7-236" value="" style="endArrow=classic;html=1;rounded=0;entryX=0.901;entryY=-0.001;entryDx=0;entryDy=0;entryPerimeter=0;" parent="1" edge="1">
          <mxGeometry width="50" height="50" relative="1" as="geometry">
            <mxPoint x="214.76" y="172" as="sourcePoint" />
            <mxPoint x="214.76" y="210" as="targetPoint" />
          </mxGeometry>
        </mxCell>
        <mxCell id="aBzJZc6G_LC1oanPzKE7-237" value="" style="rounded=0;whiteSpace=wrap;html=1;" parent="1" vertex="1">
          <mxGeometry x="421" y="329" width="201" height="81" as="geometry" />
        </mxCell>
        <mxCell id="aBzJZc6G_LC1oanPzKE7-238" value="" style="endArrow=none;html=1;rounded=0;exitX=0.766;exitY=0.998;exitDx=0;exitDy=0;exitPerimeter=0;" parent="1" edge="1">
          <mxGeometry width="50" height="50" relative="1" as="geometry">
            <mxPoint x="580.97" y="409.838" as="sourcePoint" />
            <mxPoint x="580.85" y="329" as="targetPoint" />
          </mxGeometry>
        </mxCell>
        <mxCell id="aBzJZc6G_LC1oanPzKE7-239" value="" style="endArrow=none;html=1;rounded=0;" parent="1" edge="1">
          <mxGeometry width="50" height="50" relative="1" as="geometry">
            <mxPoint x="502" y="410" as="sourcePoint" />
            <mxPoint x="502" y="329" as="targetPoint" />
          </mxGeometry>
        </mxCell>
        <mxCell id="aBzJZc6G_LC1oanPzKE7-240" value="CPF da Pessoa" style="text;html=1;align=center;verticalAlign=middle;whiteSpace=wrap;rounded=0;" parent="1" vertex="1">
          <mxGeometry x="502" y="350" width="70" height="30" as="geometry" />
        </mxCell>
        <mxCell id="aBzJZc6G_LC1oanPzKE7-241" value="Nome da Pessoa" style="text;html=1;align=center;verticalAlign=middle;whiteSpace=wrap;rounded=0;" parent="1" vertex="1">
          <mxGeometry x="421" y="348" width="70" height="32" as="geometry" />
        </mxCell>
        <mxCell id="aBzJZc6G_LC1oanPzKE7-242" value="" style="endArrow=none;html=1;rounded=0;" parent="1" edge="1">
          <mxGeometry width="50" height="50" relative="1" as="geometry">
            <mxPoint x="581" y="369" as="sourcePoint" />
            <mxPoint x="622" y="369" as="targetPoint" />
          </mxGeometry>
        </mxCell>
        <mxCell id="aBzJZc6G_LC1oanPzKE7-243" value="" style="rounded=0;whiteSpace=wrap;html=1;" parent="1" vertex="1">
          <mxGeometry x="421" y="449" width="201" height="81" as="geometry" />
        </mxCell>
        <mxCell id="aBzJZc6G_LC1oanPzKE7-244" value="" style="endArrow=none;html=1;rounded=0;exitX=0.766;exitY=0.998;exitDx=0;exitDy=0;exitPerimeter=0;" parent="1" edge="1">
          <mxGeometry width="50" height="50" relative="1" as="geometry">
            <mxPoint x="580.97" y="529.838" as="sourcePoint" />
            <mxPoint x="580.85" y="449" as="targetPoint" />
          </mxGeometry>
        </mxCell>
        <mxCell id="aBzJZc6G_LC1oanPzKE7-245" value="" style="endArrow=none;html=1;rounded=0;" parent="1" edge="1">
          <mxGeometry width="50" height="50" relative="1" as="geometry">
            <mxPoint x="502" y="530" as="sourcePoint" />
            <mxPoint x="502" y="449" as="targetPoint" />
          </mxGeometry>
        </mxCell>
        <mxCell id="aBzJZc6G_LC1oanPzKE7-246" value="CPF da Pessoa" style="text;html=1;align=center;verticalAlign=middle;whiteSpace=wrap;rounded=0;" parent="1" vertex="1">
          <mxGeometry x="502" y="470" width="70" height="30" as="geometry" />
        </mxCell>
        <mxCell id="aBzJZc6G_LC1oanPzKE7-247" value="Nome da Pessoa" style="text;html=1;align=center;verticalAlign=middle;whiteSpace=wrap;rounded=0;" parent="1" vertex="1">
          <mxGeometry x="421" y="468" width="70" height="32" as="geometry" />
        </mxCell>
        <mxCell id="aBzJZc6G_LC1oanPzKE7-248" value="" style="endArrow=none;html=1;rounded=0;" parent="1" edge="1">
          <mxGeometry width="50" height="50" relative="1" as="geometry">
            <mxPoint x="581" y="489" as="sourcePoint" />
            <mxPoint x="622" y="489" as="targetPoint" />
          </mxGeometry>
        </mxCell>
        <mxCell id="aBzJZc6G_LC1oanPzKE7-249" value="" style="endArrow=classic;html=1;rounded=0;entryX=0.901;entryY=-0.001;entryDx=0;entryDy=0;entryPerimeter=0;" parent="1" edge="1">
          <mxGeometry width="50" height="50" relative="1" as="geometry">
            <mxPoint x="602" y="410" as="sourcePoint" />
            <mxPoint x="602" y="448" as="targetPoint" />
          </mxGeometry>
        </mxCell>
        <mxCell id="aBzJZc6G_LC1oanPzKE7-250" value="" style="endArrow=classic;html=1;rounded=0;entryX=0.901;entryY=-0.001;entryDx=0;entryDy=0;entryPerimeter=0;" parent="1" edge="1">
          <mxGeometry width="50" height="50" relative="1" as="geometry">
            <mxPoint x="602" y="530" as="sourcePoint" />
            <mxPoint x="602" y="568" as="targetPoint" />
          </mxGeometry>
        </mxCell>
        <mxCell id="aBzJZc6G_LC1oanPzKE7-251" value="" style="rounded=0;whiteSpace=wrap;html=1;" parent="1" vertex="1">
          <mxGeometry x="421" y="571" width="201" height="81" as="geometry" />
        </mxCell>
        <mxCell id="aBzJZc6G_LC1oanPzKE7-252" value="" style="endArrow=none;html=1;rounded=0;exitX=0.766;exitY=0.998;exitDx=0;exitDy=0;exitPerimeter=0;" parent="1" edge="1">
          <mxGeometry width="50" height="50" relative="1" as="geometry">
            <mxPoint x="580.97" y="651.838" as="sourcePoint" />
            <mxPoint x="580.85" y="571" as="targetPoint" />
          </mxGeometry>
        </mxCell>
        <mxCell id="aBzJZc6G_LC1oanPzKE7-253" value="" style="endArrow=none;html=1;rounded=0;" parent="1" edge="1">
          <mxGeometry width="50" height="50" relative="1" as="geometry">
            <mxPoint x="502" y="652" as="sourcePoint" />
            <mxPoint x="502" y="571" as="targetPoint" />
          </mxGeometry>
        </mxCell>
        <mxCell id="aBzJZc6G_LC1oanPzKE7-254" value="CPF da Pessoa" style="text;html=1;align=center;verticalAlign=middle;whiteSpace=wrap;rounded=0;" parent="1" vertex="1">
          <mxGeometry x="502" y="592" width="70" height="30" as="geometry" />
        </mxCell>
        <mxCell id="aBzJZc6G_LC1oanPzKE7-255" value="Nome da Pessoa" style="text;html=1;align=center;verticalAlign=middle;whiteSpace=wrap;rounded=0;" parent="1" vertex="1">
          <mxGeometry x="421" y="590" width="70" height="32" as="geometry" />
        </mxCell>
        <mxCell id="aBzJZc6G_LC1oanPzKE7-256" value="" style="endArrow=none;html=1;rounded=0;" parent="1" edge="1">
          <mxGeometry width="50" height="50" relative="1" as="geometry">
            <mxPoint x="581" y="611" as="sourcePoint" />
            <mxPoint x="622" y="611" as="targetPoint" />
          </mxGeometry>
        </mxCell>
        <mxCell id="aBzJZc6G_LC1oanPzKE7-257" value="" style="rounded=0;whiteSpace=wrap;html=1;" parent="1" vertex="1">
          <mxGeometry x="421" y="691" width="201" height="81" as="geometry" />
        </mxCell>
        <mxCell id="aBzJZc6G_LC1oanPzKE7-258" value="" style="endArrow=none;html=1;rounded=0;exitX=0.766;exitY=0.998;exitDx=0;exitDy=0;exitPerimeter=0;" parent="1" edge="1">
          <mxGeometry width="50" height="50" relative="1" as="geometry">
            <mxPoint x="580.97" y="771.838" as="sourcePoint" />
            <mxPoint x="580.85" y="691" as="targetPoint" />
          </mxGeometry>
        </mxCell>
        <mxCell id="aBzJZc6G_LC1oanPzKE7-259" value="" style="endArrow=none;html=1;rounded=0;" parent="1" edge="1">
          <mxGeometry width="50" height="50" relative="1" as="geometry">
            <mxPoint x="502" y="772" as="sourcePoint" />
            <mxPoint x="502" y="691" as="targetPoint" />
          </mxGeometry>
        </mxCell>
        <mxCell id="aBzJZc6G_LC1oanPzKE7-260" value="CPF da Pessoa" style="text;html=1;align=center;verticalAlign=middle;whiteSpace=wrap;rounded=0;" parent="1" vertex="1">
          <mxGeometry x="502" y="712" width="70" height="30" as="geometry" />
        </mxCell>
        <mxCell id="aBzJZc6G_LC1oanPzKE7-261" value="Nome da Pessoa" style="text;html=1;align=center;verticalAlign=middle;whiteSpace=wrap;rounded=0;" parent="1" vertex="1">
          <mxGeometry x="421" y="710" width="70" height="32" as="geometry" />
        </mxCell>
        <mxCell id="aBzJZc6G_LC1oanPzKE7-262" value="" style="endArrow=none;html=1;rounded=0;" parent="1" edge="1">
          <mxGeometry width="50" height="50" relative="1" as="geometry">
            <mxPoint x="581" y="731" as="sourcePoint" />
            <mxPoint x="622" y="731" as="targetPoint" />
          </mxGeometry>
        </mxCell>
        <mxCell id="aBzJZc6G_LC1oanPzKE7-263" value="" style="endArrow=classic;html=1;rounded=0;entryX=0.901;entryY=-0.001;entryDx=0;entryDy=0;entryPerimeter=0;" parent="1" edge="1">
          <mxGeometry width="50" height="50" relative="1" as="geometry">
            <mxPoint x="602" y="652" as="sourcePoint" />
            <mxPoint x="602" y="690" as="targetPoint" />
          </mxGeometry>
        </mxCell>
        <mxCell id="aBzJZc6G_LC1oanPzKE7-264" value="" style="endArrow=classic;html=1;rounded=0;entryX=0.901;entryY=-0.001;entryDx=0;entryDy=0;entryPerimeter=0;" parent="1" edge="1">
          <mxGeometry width="50" height="50" relative="1" as="geometry">
            <mxPoint x="602" y="772" as="sourcePoint" />
            <mxPoint x="602" y="810" as="targetPoint" />
          </mxGeometry>
        </mxCell>
        <mxCell id="aBzJZc6G_LC1oanPzKE7-265" value="" style="endArrow=classic;html=1;rounded=0;entryX=0.901;entryY=-0.001;entryDx=0;entryDy=0;entryPerimeter=0;" parent="1" edge="1">
          <mxGeometry width="50" height="50" relative="1" as="geometry">
            <mxPoint x="605.89" y="291" as="sourcePoint" />
            <mxPoint x="605.89" y="329" as="targetPoint" />
          </mxGeometry>
        </mxCell>
        <mxCell id="aBzJZc6G_LC1oanPzKE7-266" value="" style="rounded=0;whiteSpace=wrap;html=1;" parent="1" vertex="1">
          <mxGeometry x="658" y="330" width="201" height="81" as="geometry" />
        </mxCell>
        <mxCell id="aBzJZc6G_LC1oanPzKE7-267" value="" style="endArrow=none;html=1;rounded=0;exitX=0.766;exitY=0.998;exitDx=0;exitDy=0;exitPerimeter=0;" parent="1" edge="1">
          <mxGeometry width="50" height="50" relative="1" as="geometry">
            <mxPoint x="817.97" y="410.838" as="sourcePoint" />
            <mxPoint x="817.85" y="330" as="targetPoint" />
          </mxGeometry>
        </mxCell>
        <mxCell id="aBzJZc6G_LC1oanPzKE7-268" value="" style="endArrow=none;html=1;rounded=0;" parent="1" edge="1">
          <mxGeometry width="50" height="50" relative="1" as="geometry">
            <mxPoint x="739" y="411" as="sourcePoint" />
            <mxPoint x="739" y="330" as="targetPoint" />
          </mxGeometry>
        </mxCell>
        <mxCell id="aBzJZc6G_LC1oanPzKE7-269" value="CPF da Pessoa" style="text;html=1;align=center;verticalAlign=middle;whiteSpace=wrap;rounded=0;" parent="1" vertex="1">
          <mxGeometry x="739" y="351" width="70" height="30" as="geometry" />
        </mxCell>
        <mxCell id="aBzJZc6G_LC1oanPzKE7-270" value="Nome da Pessoa" style="text;html=1;align=center;verticalAlign=middle;whiteSpace=wrap;rounded=0;" parent="1" vertex="1">
          <mxGeometry x="658" y="349" width="70" height="32" as="geometry" />
        </mxCell>
        <mxCell id="aBzJZc6G_LC1oanPzKE7-271" value="" style="endArrow=none;html=1;rounded=0;" parent="1" edge="1">
          <mxGeometry width="50" height="50" relative="1" as="geometry">
            <mxPoint x="818" y="370" as="sourcePoint" />
            <mxPoint x="859" y="370" as="targetPoint" />
          </mxGeometry>
        </mxCell>
        <mxCell id="aBzJZc6G_LC1oanPzKE7-274" value="" style="endArrow=classic;html=1;rounded=0;entryX=0.901;entryY=-0.001;entryDx=0;entryDy=0;entryPerimeter=0;" parent="1" edge="1">
          <mxGeometry width="50" height="50" relative="1" as="geometry">
            <mxPoint x="841" y="410" as="sourcePoint" />
            <mxPoint x="841" y="448" as="targetPoint" />
          </mxGeometry>
        </mxCell>
        <mxCell id="bbryz3vKc5mDDEQQW7ad-2" value="&lt;b&gt;&lt;i&gt;&lt;u&gt;&lt;font style=&quot;font-size: 40px;&quot;&gt;TRABALHO DE ESTRUTUTA DE DADOS&lt;/font&gt;&lt;/u&gt;&lt;/i&gt;&lt;/b&gt;" style="text;html=1;align=center;verticalAlign=middle;resizable=0;points=[];autosize=1;strokeColor=none;fillColor=none;" vertex="1" parent="1">
          <mxGeometry x="155" y="40" width="790" height="60" as="geometry" />
        </mxCell>
      </root>
    </mxGraphModel>
  </diagram>
</mxfile>
